<svg width="1400" height="580" viewBox="0 0 1916 685" fill="none" xmlns="http://www.w3.org/2000/svg">
<rect width="1916" height="685" fill="#212121"/>
<path d="M1916 362.248L158.297 33L0 685L1916 362.248Z" fill="#AB965D" fill-opacity="0.83"/>
<path d="M189.179 477H181.762V469.766C178.099 475.321 173.917 478.099 169.216 478.099C165.431 478.099 162.531 476.817 160.516 474.253C158.502 471.628 157.494 467.812 157.494 462.806V446.506C157.494 441.683 158.593 437.928 160.791 435.242C163.05 432.556 166.255 431.213 170.406 431.213C172.177 431.213 174.039 431.671 175.992 432.586C177.946 433.441 179.747 434.51 181.395 435.792V414.455H189.179V477ZM172.146 438.172C169.949 438.172 168.239 438.966 167.018 440.553C165.858 442.08 165.278 444.43 165.278 447.605V461.799C165.278 468.026 167.201 471.139 171.047 471.139C172.879 471.139 174.68 470.437 176.45 469.033C178.282 467.568 179.93 465.523 181.395 462.898V442.751C180.113 441.408 178.587 440.309 176.817 439.455C175.107 438.6 173.55 438.172 172.146 438.172ZM216.614 431.213C221.742 431.213 225.649 432.617 228.335 435.425C231.021 438.234 232.364 442.293 232.364 447.605V457.037H208.83V462.44C208.83 465.553 209.562 467.812 211.028 469.216C212.554 470.559 214.935 471.231 218.17 471.231C221.345 471.231 225.313 470.742 230.075 469.766L230.258 476.542C224.58 477.58 220.521 478.099 218.079 478.099C212.035 478.099 207.67 476.786 204.984 474.161C202.358 471.536 201.046 467.476 201.046 461.982V447.605C201.046 442.293 202.328 438.234 204.892 435.425C207.517 432.617 211.424 431.213 216.614 431.213ZM216.614 437.715C214.233 437.715 212.34 438.478 210.936 440.004C209.532 441.469 208.83 443.606 208.83 446.414V450.81H224.58V446.689C224.58 443.759 223.848 441.53 222.383 440.004C220.979 438.478 219.056 437.715 216.614 437.715ZM255.74 431.213C258.304 431.213 261.387 431.579 264.989 432.312L264.806 438.905C261.631 438.172 258.732 437.806 256.106 437.806C250.612 437.806 247.865 439.577 247.865 443.118V443.942C247.865 445.041 248.139 445.926 248.689 446.597C249.299 447.269 250.368 447.971 251.894 448.704L260.502 452.733C265.691 455.175 268.286 458.746 268.286 463.447V465.462C268.225 469.674 266.943 472.849 264.44 474.985C261.998 477.061 258.121 478.099 252.81 478.099C250.062 478.099 246.125 477.458 240.997 476.176L241.363 469.216C245.942 470.559 249.696 471.231 252.627 471.231C255.618 471.231 257.694 470.834 258.854 470.04C260.014 469.186 260.594 467.812 260.594 465.92V465.004C260.594 463.539 260.288 462.379 259.678 461.524C259.128 460.669 258.182 459.937 256.839 459.326L247.956 455.388C245.27 454.167 243.286 452.702 242.004 450.993C240.783 449.284 240.172 447.299 240.172 445.041V443.759C240.295 439.607 241.577 436.494 244.019 434.418C246.522 432.281 250.429 431.213 255.74 431.213ZM291.083 431.213C296.334 431.213 300.149 432.403 302.53 434.784C304.972 437.104 306.193 440.828 306.193 445.956V477H298.776V469.857C295.235 475.352 291.236 478.099 286.779 478.099C283.239 478.099 280.4 476.878 278.263 474.436C276.187 471.994 275.15 468.667 275.15 464.454V461.89C275.15 458.227 276.401 455.205 278.904 452.824C281.407 450.382 284.765 449.161 288.977 449.161C291.297 449.161 294.441 449.558 298.409 450.352V445.315C298.409 442.69 297.799 440.798 296.578 439.638C295.418 438.478 293.586 437.898 291.083 437.898C288.153 437.898 284.032 438.356 278.721 439.271V432.586C284.46 431.671 288.58 431.213 291.083 431.213ZM290.9 455.205C288.336 455.205 286.383 455.877 285.04 457.22C283.696 458.563 283.025 460.456 283.025 462.898V463.905C283.025 466.164 283.544 467.934 284.582 469.216C285.62 470.498 286.932 471.139 288.519 471.139C290.168 471.139 291.847 470.437 293.556 469.033C295.326 467.568 296.944 465.523 298.409 462.898V455.846C296.09 455.419 293.586 455.205 290.9 455.205ZM338.081 431.213C338.936 431.213 339.607 431.274 340.096 431.396V440.187C339.18 440.004 337.99 439.912 336.524 439.912C332.251 439.912 328.863 442.049 326.36 446.323V477H318.576V432.312H325.902V438.997C327.55 436.494 329.382 434.571 331.396 433.227C333.472 431.884 335.7 431.213 338.081 431.213ZM367.861 431.213C368.715 431.213 369.387 431.274 369.875 431.396V440.187C368.96 440.004 367.769 439.912 366.304 439.912C362.03 439.912 358.642 442.049 356.139 446.323V477H348.355V432.312H355.681V438.997C357.33 436.494 359.161 434.571 361.176 433.227C363.251 431.884 365.48 431.213 367.861 431.213ZM392.71 431.213C398.144 431.213 402.173 432.678 404.798 435.608C407.484 438.478 408.827 442.568 408.827 447.879V461.432C408.827 466.744 407.484 470.865 404.798 473.795C402.173 476.664 398.144 478.099 392.71 478.099C387.277 478.099 383.217 476.664 380.531 473.795C377.906 470.865 376.593 466.744 376.593 461.432V447.879C376.593 442.568 377.906 438.478 380.531 435.608C383.217 432.678 387.277 431.213 392.71 431.213ZM392.71 437.715C390.085 437.715 388.04 438.539 386.575 440.187C385.109 441.835 384.377 444.186 384.377 447.238V462.073C384.377 465.126 385.109 467.476 386.575 469.125C388.04 470.773 390.085 471.597 392.71 471.597C395.335 471.597 397.38 470.773 398.846 469.125C400.311 467.476 401.043 465.126 401.043 462.073V447.147C401.043 444.094 400.311 441.774 398.846 440.187C397.38 438.539 395.335 437.715 392.71 437.715ZM428.486 414.455V477H420.703V414.455H428.486ZM449.055 414.455V477H441.271V414.455H449.055ZM475.484 431.213C480.734 431.213 484.55 432.403 486.931 434.784C489.373 437.104 490.594 440.828 490.594 445.956V477H483.176V469.857C479.635 475.352 475.637 478.099 471.18 478.099C467.639 478.099 464.8 476.878 462.664 474.436C460.588 471.994 459.55 468.667 459.55 464.454V461.89C459.55 458.227 460.802 455.205 463.305 452.824C465.808 450.382 469.165 449.161 473.378 449.161C475.698 449.161 478.842 449.558 482.81 450.352V445.315C482.81 442.69 482.199 440.798 480.978 439.638C479.819 438.478 477.987 437.898 475.484 437.898C472.554 437.898 468.433 438.356 463.122 439.271V432.586C468.86 431.671 472.981 431.213 475.484 431.213ZM475.301 455.205C472.737 455.205 470.783 455.877 469.44 457.22C468.097 458.563 467.425 460.456 467.425 462.898V463.905C467.425 466.164 467.944 467.934 468.982 469.216C470.02 470.498 471.333 471.139 472.92 471.139C474.568 471.139 476.247 470.437 477.957 469.033C479.727 467.568 481.345 465.523 482.81 462.898V455.846C480.49 455.419 477.987 455.205 475.301 455.205ZM533.745 477H526.328V469.766C522.665 475.321 518.483 478.099 513.782 478.099C509.997 478.099 507.097 476.817 505.083 474.253C503.068 471.628 502.061 467.812 502.061 462.806V446.506C502.061 441.683 503.159 437.928 505.357 435.242C507.616 432.556 510.821 431.213 514.973 431.213C516.743 431.213 518.605 431.671 520.559 432.586C522.512 433.441 524.313 434.51 525.961 435.792V414.455H533.745V477ZM516.712 438.172C514.515 438.172 512.805 438.966 511.584 440.553C510.424 442.08 509.844 444.43 509.844 447.605V461.799C509.844 468.026 511.767 471.139 515.614 471.139C517.445 471.139 519.246 470.437 521.016 469.033C522.848 467.568 524.496 465.523 525.961 462.898V442.751C524.679 441.408 523.153 440.309 521.383 439.455C519.673 438.6 518.117 438.172 516.712 438.172ZM561.729 431.213C567.163 431.213 571.192 432.678 573.817 435.608C576.503 438.478 577.846 442.568 577.846 447.879V461.432C577.846 466.744 576.503 470.865 573.817 473.795C571.192 476.664 567.163 478.099 561.729 478.099C556.296 478.099 552.236 476.664 549.55 473.795C546.925 470.865 545.612 466.744 545.612 461.432V447.879C545.612 442.568 546.925 438.478 549.55 435.608C552.236 432.678 556.296 431.213 561.729 431.213ZM561.729 437.715C559.104 437.715 557.059 438.539 555.594 440.187C554.128 441.835 553.396 444.186 553.396 447.238V462.073C553.396 465.126 554.128 467.476 555.594 469.125C557.059 470.773 559.104 471.597 561.729 471.597C564.354 471.597 566.399 470.773 567.865 469.125C569.33 467.476 570.062 465.126 570.062 462.073V447.147C570.062 444.094 569.33 441.774 567.865 440.187C566.399 438.539 564.354 437.715 561.729 437.715ZM609.227 431.213C610.082 431.213 610.753 431.274 611.241 431.396V440.187C610.326 440.004 609.135 439.912 607.67 439.912C603.397 439.912 600.008 442.049 597.505 446.323V477H589.722V432.312H597.047V438.997C598.696 436.494 600.527 434.571 602.542 433.227C604.618 431.884 606.846 431.213 609.227 431.213ZM643.282 438.264C644.869 436.005 646.701 434.265 648.776 433.044C650.852 431.823 653.019 431.213 655.278 431.213C659.063 431.213 661.993 432.556 664.069 435.242C666.145 437.867 667.183 441.713 667.183 446.78V461.249C667.183 466.805 665.87 471.017 663.245 473.886C660.62 476.695 656.56 478.099 651.066 478.099C645.693 478.099 641.755 476.725 639.252 473.978C636.749 471.231 635.498 467.049 635.498 461.432V414.455H643.282V438.264ZM653.446 438.172C651.676 438.172 649.875 438.844 648.044 440.187C646.212 441.53 644.625 443.362 643.282 445.682V462.348C643.282 465.34 643.953 467.629 645.296 469.216C646.701 470.803 648.624 471.597 651.066 471.597C656.621 471.597 659.399 468.453 659.399 462.165V447.879C659.399 441.408 657.415 438.172 653.446 438.172ZM692.436 431.213C697.687 431.213 701.502 432.403 703.883 434.784C706.325 437.104 707.546 440.828 707.546 445.956V477H700.129V469.857C696.588 475.352 692.589 478.099 688.132 478.099C684.591 478.099 681.753 476.878 679.616 474.436C677.54 471.994 676.502 468.667 676.502 464.454V461.89C676.502 458.227 677.754 455.205 680.257 452.824C682.76 450.382 686.118 449.161 690.33 449.161C692.65 449.161 695.794 449.558 699.762 450.352V445.315C699.762 442.69 699.152 440.798 697.931 439.638C696.771 438.478 694.939 437.898 692.436 437.898C689.506 437.898 685.385 438.356 680.074 439.271V432.586C685.812 431.671 689.933 431.213 692.436 431.213ZM692.253 455.205C689.689 455.205 687.736 455.877 686.392 457.22C685.049 458.563 684.378 460.456 684.378 462.898V463.905C684.378 466.164 684.897 467.934 685.935 469.216C686.972 470.498 688.285 471.139 689.872 471.139C691.521 471.139 693.199 470.437 694.909 469.033C696.679 467.568 698.297 465.523 699.762 462.898V455.846C697.442 455.419 694.939 455.205 692.253 455.205ZM735.588 431.213C738.335 431.213 741.449 431.61 744.928 432.403L744.745 439.271C741.204 438.478 738.152 438.081 735.588 438.081C732.719 438.081 730.521 438.875 728.995 440.462C727.529 442.049 726.797 444.308 726.797 447.238V461.982C726.797 465.034 727.56 467.354 729.086 468.941C730.673 470.468 732.841 471.231 735.588 471.231C737.297 471.231 738.793 471.139 740.075 470.956C741.357 470.773 742.914 470.468 744.745 470.04L744.928 476.908C741.204 477.702 738.06 478.099 735.496 478.099C724.507 478.099 719.013 472.543 719.013 461.432V447.879C719.013 436.768 724.538 431.213 735.588 431.213ZM763.394 414.455V451.909L778.046 432.312H786.746L771.544 451.909L787.845 477H778.504L763.394 453.008V477H755.61V414.455H763.394ZM808.001 431.213C813.129 431.213 817.036 432.617 819.722 435.425C822.409 438.234 823.752 442.293 823.752 447.605V457.037H800.217V462.44C800.217 465.553 800.95 467.812 802.415 469.216C803.941 470.559 806.322 471.231 809.558 471.231C812.732 471.231 816.701 470.742 821.462 469.766L821.646 476.542C815.968 477.58 811.908 478.099 809.466 478.099C803.422 478.099 799.057 476.786 796.371 474.161C793.746 471.536 792.433 467.476 792.433 461.982V447.605C792.433 442.293 793.715 438.234 796.279 435.425C798.905 432.617 802.812 431.213 808.001 431.213ZM808.001 437.715C805.62 437.715 803.728 438.478 802.323 440.004C800.919 441.469 800.217 443.606 800.217 446.414V450.81H815.968V446.689C815.968 443.759 815.235 441.53 813.77 440.004C812.366 438.478 810.443 437.715 808.001 437.715ZM853.812 431.213C857.72 431.213 860.711 432.556 862.787 435.242C864.923 437.867 865.992 441.622 865.992 446.506V477H858.208V447.605C858.208 441.5 856.224 438.447 852.256 438.447C850.485 438.447 848.684 439.119 846.853 440.462C845.021 441.805 843.434 443.636 842.091 445.956V477H834.307V432.312H841.633V438.997C843.281 436.494 845.113 434.571 847.128 433.227C849.203 431.884 851.432 431.213 853.812 431.213ZM909.611 477H902.194V469.766C898.531 475.321 894.349 478.099 889.648 478.099C885.863 478.099 882.963 476.817 880.948 474.253C878.934 471.628 877.927 467.812 877.927 462.806V446.506C877.927 441.683 879.025 437.928 881.223 435.242C883.482 432.556 886.687 431.213 890.839 431.213C892.609 431.213 894.471 431.671 896.425 432.586C898.378 433.441 900.179 434.51 901.827 435.792V414.455H909.611V477ZM892.578 438.172C890.381 438.172 888.671 438.966 887.45 440.553C886.29 442.08 885.71 444.43 885.71 447.605V461.799C885.71 468.026 887.633 471.139 891.48 471.139C893.311 471.139 895.112 470.437 896.882 469.033C898.714 467.568 900.362 465.523 901.827 462.898V442.751C900.545 441.408 899.019 440.309 897.249 439.455C895.539 438.6 893.983 438.172 892.578 438.172Z" fill="white"/>
<path d="M185.198 233.35C190.199 233.35 196.728 234.091 204.784 235.573L204.506 245.99C196.913 244.509 190.477 243.768 185.198 243.768C179.827 243.768 175.938 244.833 173.53 246.963C171.215 249.093 170.058 252.334 170.058 256.686V260.298C170.058 262.613 170.336 264.465 170.891 265.854C171.539 267.15 172.651 268.308 174.225 269.327C175.799 270.253 178.161 271.225 181.309 272.244L194.227 276.55C200.432 278.68 204.784 281.504 207.284 285.023C209.877 288.542 211.174 293.681 211.174 300.441V303.081C211.174 311.322 208.766 317.48 203.951 321.555C199.228 325.63 191.449 327.667 180.615 327.667C175.336 327.667 168.576 326.741 160.334 324.889L160.612 314.193C168.298 316.045 174.873 316.971 180.337 316.971C187.282 316.971 192.19 315.953 195.061 313.915C197.931 311.785 199.367 308.498 199.367 304.053V299.469C199.367 296.228 198.626 293.774 197.144 292.107C195.755 290.348 193.255 288.866 189.643 287.662L175.336 282.939C168.946 280.809 164.501 278.078 162.001 274.744C159.501 271.318 158.251 266.178 158.251 259.325V257.797C158.251 249.741 160.381 243.675 164.64 239.601C168.993 235.434 175.845 233.35 185.198 233.35ZM248.808 256.547C257.05 256.547 263.162 258.77 267.144 263.215C271.219 267.567 273.256 273.772 273.256 281.828V302.386C273.256 310.443 271.219 316.693 267.144 321.138C263.162 325.491 257.05 327.667 248.808 327.667C240.567 327.667 234.409 325.491 230.334 321.138C226.352 316.693 224.361 310.443 224.361 302.386V281.828C224.361 273.772 226.352 267.567 230.334 263.215C234.409 258.77 240.567 256.547 248.808 256.547ZM248.808 266.41C244.826 266.41 241.724 267.66 239.502 270.16C237.279 272.66 236.168 276.226 236.168 280.856V303.358C236.168 307.989 237.279 311.554 239.502 314.054C241.724 316.554 244.826 317.805 248.808 317.805C252.79 317.805 255.893 316.554 258.115 314.054C260.338 311.554 261.449 307.989 261.449 303.358V280.717C261.449 276.087 260.338 272.568 258.115 270.16C255.893 267.66 252.79 266.41 248.808 266.41ZM340.312 258.214L309.198 351.698H297.391L306.281 326H301.836L282.528 258.214H295.446L310.031 317.527L328.089 258.214H340.312ZM388.128 231.128V326H376.322V231.128H388.128ZM454.749 326H443.636V316.277C441.136 319.981 438.358 322.805 435.302 324.75C432.246 326.695 429.005 327.667 425.579 327.667C419.93 327.667 415.485 325.722 412.244 321.833C409.095 317.851 407.521 312.063 407.521 304.47V258.214H419.328V302.386C419.328 307.294 420.069 310.906 421.55 313.221C423.125 315.536 425.255 316.693 427.94 316.693C430.44 316.693 433.033 315.721 435.719 313.776C438.497 311.739 440.905 308.961 442.942 305.442V258.214H454.749V326ZM486.068 258.214V326H474.261V258.214H486.068ZM480.095 230.85C482.595 230.85 484.493 231.405 485.79 232.517C487.179 233.628 487.874 235.202 487.874 237.239V241.268C487.874 243.305 487.179 244.879 485.79 245.99C484.493 247.009 482.595 247.518 480.095 247.518C477.687 247.518 475.789 247.009 474.4 245.99C473.103 244.879 472.455 243.305 472.455 241.268V237.239C472.455 235.202 473.103 233.628 474.4 232.517C475.789 231.405 477.687 230.85 480.095 230.85ZM524.907 256.547C528.796 256.547 533.473 257.103 538.936 258.214L538.659 268.215C533.843 267.104 529.445 266.548 525.463 266.548C517.128 266.548 512.961 269.234 512.961 274.605V275.855C512.961 277.522 513.378 278.865 514.211 279.883C515.137 280.902 516.758 281.967 519.073 283.078L532.13 289.19C540.001 292.894 543.937 298.312 543.937 305.442V308.498C543.844 314.888 541.9 319.703 538.103 322.944C534.399 326.093 528.519 327.667 520.462 327.667C516.295 327.667 510.322 326.695 502.543 324.75L503.099 314.193C510.044 316.23 515.739 317.249 520.184 317.249C524.722 317.249 527.87 316.647 529.63 315.443C531.389 314.147 532.269 312.063 532.269 309.192V307.803C532.269 305.581 531.806 303.821 530.88 302.525C530.047 301.229 528.611 300.117 526.574 299.191L513.1 293.218C509.026 291.366 506.016 289.144 504.071 286.551C502.219 283.958 501.293 280.948 501.293 277.522V275.577C501.478 269.28 503.423 264.557 507.127 261.409C510.924 258.168 516.851 256.547 524.907 256.547ZM570.985 258.214V326H559.178V258.214H570.985ZM565.012 230.85C567.512 230.85 569.41 231.405 570.707 232.517C572.096 233.628 572.79 235.202 572.79 237.239V241.268C572.79 243.305 572.096 244.879 570.707 245.99C569.41 247.009 567.512 247.518 565.012 247.518C562.604 247.518 560.706 247.009 559.317 245.99C558.02 244.879 557.372 243.305 557.372 241.268V237.239C557.372 235.202 558.02 233.628 559.317 232.517C560.706 231.405 562.604 230.85 565.012 230.85ZM602.184 231.128V326H590.377V231.128H602.184ZM633.384 231.128V326H621.577V231.128H633.384ZM675.834 256.547C684.076 256.547 690.188 258.77 694.17 263.215C698.244 267.567 700.282 273.772 700.282 281.828V302.386C700.282 310.443 698.244 316.693 694.17 321.138C690.188 325.491 684.076 327.667 675.834 327.667C667.593 327.667 661.435 325.491 657.36 321.138C653.378 316.693 651.387 310.443 651.387 302.386V281.828C651.387 273.772 653.378 267.567 657.36 263.215C661.435 258.77 667.593 256.547 675.834 256.547ZM675.834 266.41C671.852 266.41 668.75 267.66 666.528 270.16C664.305 272.66 663.194 276.226 663.194 280.856V303.358C663.194 307.989 664.305 311.554 666.528 314.054C668.75 316.554 671.852 317.805 675.834 317.805C679.816 317.805 682.919 316.554 685.141 314.054C687.364 311.554 688.475 307.989 688.475 303.358V280.717C688.475 276.087 687.364 272.568 685.141 270.16C682.919 267.66 679.816 266.41 675.834 266.41ZM762.701 256.547C766.591 256.547 771.267 257.103 776.731 258.214L776.453 268.215C771.638 267.104 767.239 266.548 763.257 266.548C754.923 266.548 750.755 269.234 750.755 274.605V275.855C750.755 277.522 751.172 278.865 752.006 279.883C752.932 280.902 754.552 281.967 756.867 283.078L769.924 289.19C777.796 292.894 781.731 298.312 781.731 305.442V308.498C781.639 314.888 779.694 319.703 775.897 322.944C772.193 326.093 766.313 327.667 758.256 327.667C754.089 327.667 748.116 326.695 740.337 324.75L740.893 314.193C747.838 316.23 753.534 317.249 757.978 317.249C762.516 317.249 765.665 316.647 767.424 315.443C769.184 314.147 770.063 312.063 770.063 309.192V307.803C770.063 305.581 769.6 303.821 768.674 302.525C767.841 301.229 766.405 300.117 764.368 299.191L750.894 293.218C746.82 291.366 743.81 289.144 741.865 286.551C740.013 283.958 739.087 280.948 739.087 277.522V275.577C739.273 269.28 741.217 264.557 744.921 261.409C748.718 258.168 754.645 256.547 762.701 256.547ZM818.519 256.547C826.297 256.547 832.224 258.677 836.298 262.937C840.373 267.197 842.41 273.355 842.41 281.411V295.719H806.712V303.914C806.712 308.637 807.823 312.063 810.045 314.193C812.36 316.23 815.972 317.249 820.88 317.249C825.695 317.249 831.715 316.508 838.938 315.026L839.215 325.305C830.603 326.88 824.445 327.667 820.741 327.667C811.573 327.667 804.952 325.676 800.878 321.694C796.896 317.712 794.905 311.554 794.905 303.219V281.411C794.905 273.355 796.849 267.197 800.739 262.937C804.721 258.677 810.647 256.547 818.519 256.547ZM818.519 266.41C814.907 266.41 812.036 267.567 809.906 269.882C807.776 272.105 806.712 275.346 806.712 279.606V286.273H830.603V280.022C830.603 275.577 829.492 272.197 827.27 269.882C825.14 267.567 822.223 266.41 818.519 266.41ZM880.646 256.547C884.721 256.547 888.425 257.149 891.759 258.353L913.428 258.075V268.493L902.038 268.215C903.612 271.549 904.399 275.022 904.399 278.633V281.689C904.399 288.449 902.315 293.913 898.148 298.08C893.981 302.155 888.147 304.192 880.646 304.192C875.831 304.192 871.895 303.729 868.839 302.803C866.802 304.47 865.783 306.368 865.783 308.498V309.331C865.783 310.813 866.246 311.924 867.172 312.665C868.098 313.313 869.904 313.73 872.59 313.915L893.287 315.443C897.546 315.814 900.973 317.434 903.566 320.305C906.251 323.083 907.594 326.602 907.594 330.862V336.001C907.594 339.983 906.807 343.224 905.232 345.725C903.658 348.225 900.741 350.123 896.481 351.42C892.314 352.716 886.295 353.364 878.424 353.364C875.46 353.364 871.941 353.04 867.867 352.392C863.885 351.744 860.088 350.91 856.477 349.892L856.893 338.918C865.506 341.789 872.821 343.224 878.84 343.224C883.841 343.224 887.545 342.9 889.953 342.252C892.453 341.696 894.074 340.817 894.815 339.613C895.648 338.409 896.065 336.603 896.065 334.195V333.084C896.065 330.954 895.463 329.287 894.259 328.084C893.148 326.88 891.527 326.232 889.397 326.139L868.561 324.75C864.116 324.472 860.736 323.222 858.421 320.999C856.106 318.777 854.949 315.767 854.949 311.971V309.192C854.949 307.155 855.458 305.164 856.477 303.219C857.588 301.275 859.162 299.562 861.199 298.08C859.625 296.321 858.468 294.098 857.727 291.413C857.079 288.634 856.754 285.254 856.754 281.272V278.217C856.754 271.642 858.792 266.41 862.866 262.52C866.941 258.538 872.867 256.547 880.646 256.547ZM880.646 266.41C876.757 266.41 873.747 267.428 871.617 269.465C869.58 271.41 868.561 274.235 868.561 277.939V282.523C868.561 285.949 868.839 288.496 869.395 290.162C870.043 291.737 871.154 292.848 872.729 293.496C874.303 294.052 876.664 294.33 879.813 294.33C884.073 294.33 887.267 293.311 889.397 291.274C891.527 289.236 892.592 286.319 892.592 282.523V278.355C892.592 274.466 892.036 271.086 890.925 268.215C889.814 267.752 888.286 267.336 886.341 266.965C884.489 266.595 882.591 266.41 880.646 266.41ZM946.863 256.547C955.105 256.547 961.216 258.77 965.198 263.215C969.273 267.567 971.31 273.772 971.31 281.828V302.386C971.31 310.443 969.273 316.693 965.198 321.138C961.216 325.491 955.105 327.667 946.863 327.667C938.621 327.667 932.463 325.491 928.388 321.138C924.406 316.693 922.416 310.443 922.416 302.386V281.828C922.416 273.772 924.406 267.567 928.388 263.215C932.463 258.77 938.621 256.547 946.863 256.547ZM946.863 266.41C942.881 266.41 939.779 267.66 937.556 270.16C935.334 272.66 934.222 276.226 934.222 280.856V303.358C934.222 307.989 935.334 311.554 937.556 314.054C939.779 316.554 942.881 317.805 946.863 317.805C950.845 317.805 953.947 316.554 956.17 314.054C958.392 311.554 959.503 307.989 959.503 303.358V280.717C959.503 276.087 958.392 272.568 956.17 270.16C953.947 267.66 950.845 266.41 946.863 266.41ZM1037.81 258.214L1016.84 326H1001.42L980.582 258.214H993.084L1009.2 317.388L1025.31 258.214H1037.81ZM1060.68 258.214V326H1048.87V258.214H1060.68ZM1054.71 230.85C1057.21 230.85 1059.11 231.405 1060.4 232.517C1061.79 233.628 1062.49 235.202 1062.49 237.239V241.268C1062.49 243.305 1061.79 244.879 1060.4 245.99C1059.11 247.009 1057.21 247.518 1054.71 247.518C1052.3 247.518 1050.4 247.009 1049.01 245.99C1047.72 244.879 1047.07 243.305 1047.07 241.268V237.239C1047.07 235.202 1047.72 233.628 1049.01 232.517C1050.4 231.405 1052.3 230.85 1054.71 230.85ZM1100.77 256.547C1108.73 256.547 1114.52 258.353 1118.13 261.965C1121.84 265.484 1123.69 271.132 1123.69 278.911V326H1112.44V315.165C1107.07 323.5 1101 327.667 1094.24 327.667C1088.87 327.667 1084.56 325.815 1081.32 322.111C1078.17 318.406 1076.6 313.36 1076.6 306.97V303.081C1076.6 297.524 1078.5 292.94 1082.3 289.329C1086.09 285.625 1091.19 283.773 1097.58 283.773C1101.09 283.773 1105.86 284.375 1111.88 285.578V277.939C1111.88 273.957 1110.96 271.086 1109.1 269.327C1107.35 267.567 1104.57 266.687 1100.77 266.687C1096.33 266.687 1090.07 267.382 1082.02 268.771V258.631C1090.72 257.242 1096.97 256.547 1100.77 256.547ZM1100.49 292.94C1096.6 292.94 1093.64 293.959 1091.6 295.996C1089.57 298.034 1088.55 300.904 1088.55 304.609V306.137C1088.55 309.563 1089.33 312.248 1090.91 314.193C1092.48 316.138 1094.47 317.11 1096.88 317.11C1099.38 317.11 1101.93 316.045 1104.52 313.915C1107.21 311.693 1109.66 308.591 1111.88 304.609V293.913C1108.36 293.265 1104.57 292.94 1100.49 292.94Z" fill="white"/>
</svg>
