<svg width="1476" height="1360" viewBox="0 0 1376 1160" fill="none" xmlns="http://www.w3.org/2000/svg">
<g clip-path="url(#clip0)">
<path d="M1327.84 485.634C1259.03 573.092 1129.19 593.119 1021.75 562.658C986.599 552.448 952.685 538.416 920.627 520.818C902.006 510.768 883.83 499.743 866.025 487.995C861.644 485.117 857.264 482.195 852.928 479.214C849.973 477.207 847.028 475.175 844.093 473.119C807.325 447.41 771.999 419.207 737.265 391.166C650.559 321.167 561.478 249.013 454.947 215.615C433 208.737 404.608 205.52 391.035 223.997C379.26 240.04 386.447 262.753 396.411 279.961C433.371 343.703 500.461 383.949 567.61 414.897C634.759 445.846 705.889 470.92 764.261 516.169C822.635 561.419 867.198 633.336 855.259 705.933C844.968 768.493 793.575 819.321 733.82 841.474C674.066 863.611 607.422 860.527 545.306 846.152C483.191 831.763 424.224 806.659 364.276 785.023C328.133 771.962 280.882 762.93 256.9 792.815C236.645 818.067 248.287 857.9 272.952 878.916C297.617 899.932 330.999 906.971 362.851 913.288C461.748 932.917 560.646 952.54 659.544 972.159C689.881 978.166 720.931 984.453 747.363 1000.45C773.795 1016.43 795.119 1044.36 794.362 1075.1C793.604 1105.4 771.286 1132.17 743.932 1145.58C716.595 1158.99 685.025 1161.05 654.569 1159.61C540.436 1154.17 213.228 973.96 134.748 950.922C84.3193 936.134 29.1835 914.41 7.91857 866.622C-18.5582 807.131 25.0107 735.154 84.4825 707.984C143.94 680.799 212.871 686.82 277.674 695.971C342.478 705.121 409.418 716.765 472.5 699.38C535.579 681.995 593.374 625.322 587.152 560.562C581.732 504.215 530.665 461.755 476.924 443.041C434.856 428.386 390.1 424.402 345.908 417.805C333.642 415.989 321.421 413.953 309.319 411.444C278.325 404.99 248.091 395.345 219.108 382.665C188.694 369.387 159.8 352.906 132.922 333.505C111.484 318.053 91.4497 300.764 73.049 281.836C70.2422 278.943 67.4652 275.986 64.7179 272.966C62.1047 270.073 59.5206 267.121 56.9966 264.111C24.1494 225.104 -0.11513 177.066 7.16169 127.566C14.4226 78.1994 53.1356 37.0973 99.2284 17.3506C125.868 5.94233 154.602 0.835923 183.692 0.0980033C204.963 -0.324497 226.227 1.1971 247.218 4.64359C344.348 20.0809 433.356 66.9831 517.419 117.767C601.467 168.55 683.377 224.293 774.745 260.495C866.114 296.712 970.12 312.046 1062.81 279.297C1155.5 246.563 1231.65 157.245 1227.12 59.5891C1288.6 112.203 1340.84 178.335 1363.97 255.61C1387.11 332.885 1377.81 422.114 1327.84 485.634Z" fill="#424242"/>
<path d="M884.896 384.709C890.864 384.709 895.703 379.9 895.703 373.968C895.703 368.036 890.864 363.228 884.896 363.228C878.927 363.228 874.089 368.036 874.089 373.968C874.089 379.9 878.927 384.709 884.896 384.709Z" fill="#6C63FF"/>
<path d="M1266.53 248.894C1275.76 248.894 1283.24 241.459 1283.24 232.288C1283.24 223.117 1275.76 215.682 1266.53 215.682C1257.3 215.682 1249.82 223.117 1249.82 232.288C1249.82 241.459 1257.3 248.894 1266.53 248.894Z" fill="#FF6584"/>
<path d="M170.636 760.87C174.046 760.87 176.81 758.123 176.81 754.735C176.81 751.346 174.046 748.599 170.636 748.599C167.227 748.599 164.463 751.346 164.463 754.735C164.463 758.123 167.227 760.87 170.636 760.87Z" fill="#FF6584"/>
<path d="M347.838 402.013C347.842 407.335 347.194 412.638 345.908 417.804C333.642 415.989 321.421 413.952 309.319 411.444C278.325 404.99 248.091 395.345 219.108 382.665C223.769 367.709 233.671 354.909 247.017 346.59C260.363 338.271 276.268 334.984 291.844 337.325C307.421 339.666 321.636 347.48 331.91 359.35C342.184 371.219 347.835 386.356 347.838 402.013Z" fill="#FF6584"/>
<path d="M1159.61 346.299C1163.1 346.299 1165.93 343.49 1165.93 340.024C1165.93 336.558 1163.1 333.749 1159.61 333.749C1156.12 333.749 1153.3 336.558 1153.3 340.024C1153.3 343.49 1156.12 346.299 1159.61 346.299Z" fill="#F0F0F0"/>
<path d="M581.967 1036.99C585.454 1036.99 588.281 1034.18 588.281 1030.72C588.281 1027.25 585.454 1024.44 581.967 1024.44C578.48 1024.44 575.653 1027.25 575.653 1030.72C575.653 1034.18 578.48 1036.99 581.967 1036.99Z" fill="#F0F0F0"/>
<path d="M672.548 1124.07C676.035 1124.07 678.862 1121.26 678.862 1117.79C678.862 1114.33 676.035 1111.52 672.548 1111.52C669.061 1111.52 666.234 1114.33 666.234 1117.79C666.234 1121.26 669.061 1124.07 672.548 1124.07Z" fill="#F0F0F0"/>
<path d="M112.723 876.125C116.21 876.125 119.037 873.316 119.037 869.85C119.037 866.384 116.21 863.575 112.723 863.575C109.236 863.575 106.409 866.384 106.409 869.85C106.409 873.316 109.236 876.125 112.723 876.125Z" fill="#F0F0F0"/>
<path d="M423.077 759.534C426.564 759.534 429.391 756.725 429.391 753.259C429.391 749.793 426.564 746.984 423.077 746.984C419.59 746.984 416.763 749.793 416.763 753.259C416.763 756.725 419.59 759.534 423.077 759.534Z" fill="#F0F0F0"/>
<path d="M391.893 136.73C395.381 136.73 398.207 133.921 398.207 130.455C398.207 126.989 395.381 124.18 391.893 124.18C388.406 124.18 385.579 126.989 385.579 130.455C385.579 133.921 388.406 136.73 391.893 136.73Z" fill="#F0F0F0"/>
<path d="M773.525 628.185C777.012 628.185 779.839 625.375 779.839 621.909C779.839 618.444 777.012 615.634 773.525 615.634C770.038 615.634 767.211 618.444 767.211 621.909C767.211 625.375 770.038 628.185 773.525 628.185Z" fill="#F0F0F0"/>
<path d="M821.043 737.396C824.53 737.396 827.357 734.587 827.357 731.121C827.357 727.656 824.53 724.846 821.043 724.846C817.556 724.846 814.729 727.656 814.729 731.121C814.729 734.587 817.556 737.396 821.043 737.396Z" fill="#F0F0F0"/>
<path d="M251.91 150.486C251.957 182.17 244.424 213.411 229.933 241.634C228.018 245.353 225.988 249.008 223.845 252.599C202.625 288.215 170.876 316.465 132.922 333.505C111.484 318.053 91.4497 300.764 73.0489 281.835C70.2422 278.943 67.4652 275.986 64.7179 272.966C62.1047 270.073 59.5206 267.121 56.9966 264.111C24.1494 225.104 -0.11515 177.066 7.16167 127.566C14.4225 78.1992 53.1356 37.097 99.2284 17.3503C125.868 5.94207 154.602 0.835759 183.692 0.0978394C206.437 20.0616 224.369 44.8588 236.155 72.6501C237.64 76.1478 239.006 79.6898 240.298 83.2761C248.005 104.855 251.932 127.588 251.91 150.486Z" fill="#424242"/>
<path d="M343.977 160.817C343.977 191.558 313.774 220.072 258.92 241.132C247.946 245.353 236.2 249.175 223.845 252.599C177.604 265.409 122.571 272.508 64.7179 272.966C62.1047 270.073 59.5206 267.121 56.9966 264.111C57.6201 264.125 58.2437 264.125 58.8673 264.125C121.695 264.125 181.301 256.215 229.933 241.633C238.917 238.933 247.53 236.011 255.712 232.867C306.141 213.519 335.067 187.249 335.067 160.817C335.067 134.384 306.141 108.129 255.712 88.7661C250.723 86.8475 245.585 85.0175 240.298 83.276C239.006 79.6897 237.64 76.1477 236.155 72.65C244.055 75.0999 251.643 77.717 258.92 80.5014C313.773 101.562 343.977 130.09 343.977 160.817Z" fill="#E4E4E4"/>
<path d="M68.175 51.1315C71.6621 51.1315 74.4889 48.322 74.4889 44.8563C74.4889 41.3906 71.6621 38.5811 68.175 38.5811C64.6879 38.5811 61.861 41.3906 61.861 44.8563C61.861 48.322 64.6879 51.1315 68.175 51.1315Z" fill="#F0F0F0"/>
<path d="M200.335 90.9791C203.822 90.9791 206.649 88.1696 206.649 84.7039C206.649 81.2382 203.822 78.4287 200.335 78.4287C196.848 78.4287 194.021 81.2382 194.021 84.7039C194.021 88.1696 196.848 90.9791 200.335 90.9791Z" fill="#F0F0F0"/>
<path d="M132.028 209.189C165.938 209.189 193.428 181.867 193.428 148.165C193.428 114.463 165.938 87.1414 132.028 87.1414C98.1173 87.1414 70.6275 114.463 70.6275 148.165C70.6275 181.867 98.1173 209.189 132.028 209.189Z" fill="#F0F0F0"/>
<path opacity="0.3" d="M1265.94 471.141C1252.16 475.185 1221.77 478.166 1188.36 479.996C1154.97 481.812 1118.33 482.609 1082.16 483.376C1018.84 484.734 955.528 486.096 892.22 487.464C883.518 487.656 874.786 487.833 866.025 487.995C861.644 485.117 857.264 482.195 852.928 479.214C860.694 479.258 868.461 479.214 876.167 479.066C909.089 478.417 936.961 475.864 968.709 474.654C1017.56 472.779 1070.31 474.255 1121.23 475.008C1172.15 475.775 1230.16 475.495 1265.94 471.141Z" fill="#F0F0F0"/>
<path opacity="0.3" d="M294.144 936.371L92.3083 769.261L288.388 943.064C288.768 943.7 289.294 944.237 289.924 944.63C290.554 945.023 291.27 945.261 292.011 945.324C292.752 945.387 293.497 945.274 294.186 944.994C294.874 944.713 295.485 944.274 295.968 943.712C296.452 943.15 296.793 942.481 296.964 941.762C297.136 941.043 297.132 940.293 296.954 939.575C296.775 938.858 296.427 938.193 295.939 937.635C295.45 937.078 294.835 936.645 294.144 936.371H294.144Z" fill="#F0F0F0"/>
<path d="M140.937 303.5C144.424 303.5 147.251 300.69 147.251 297.225C147.251 293.759 144.424 290.949 140.937 290.949C137.45 290.949 134.623 293.759 134.623 297.225C134.623 300.69 137.45 303.5 140.937 303.5Z" fill="#F0F0F0"/>
<path d="M671.221 1024.34L697.337 1024.34L709.762 924.223L671.217 924.225L671.221 1024.34Z" fill="#FFB6B6"/>
<path d="M664.56 1015.87L671.91 1015.87L700.61 1004.27L715.992 1015.86H715.994C724.686 1015.86 733.023 1019.3 739.17 1025.41C745.316 1031.51 748.77 1039.8 748.77 1048.44V1049.5L664.561 1049.5L664.56 1015.87Z" fill="#2F2E41"/>
<path d="M475.64 1024.34L449.525 1024.34L437.1 924.223L475.645 924.225L475.64 1024.34Z" fill="#FFB6B6"/>
<path d="M482.301 1049.5L398.092 1049.5V1048.44C398.093 1039.8 401.546 1031.51 407.693 1025.41C413.839 1019.3 422.176 1015.86 430.869 1015.86H430.871L446.253 1004.27L474.952 1015.87L482.303 1015.87L482.301 1049.5Z" fill="#2F2E41"/>
<path d="M569.218 257.073L542.774 277.086L472.528 295.575C472.528 295.575 497.699 471.141 485.819 482.948C473.94 494.755 484.654 495.072 482.267 510.41C479.879 525.747 470.367 566.242 470.367 566.242H680.023C680.023 566.242 681.713 541.075 671.378 535.625C661.043 530.175 680.905 504.737 672.459 500.484C664.013 496.231 675.892 459.335 675.892 459.335L701.637 338.538L633.16 285.29L622.746 260.352L569.218 257.073Z" fill="white"/>
<path d="M602.213 413.958C607.266 413.958 611.363 409.887 611.363 404.864C611.363 399.842 607.266 395.771 602.213 395.771C597.16 395.771 593.064 399.842 593.064 404.864C593.064 409.887 597.16 413.958 602.213 413.958Z" fill="#F2F2F2"/>
<path d="M470.367 566.242L461.721 787.501C461.721 787.501 424.392 950.92 430.876 955.216C437.361 959.513 440.107 985.13 440.107 985.13L476.851 989.427C476.851 989.427 476.851 972.242 485.497 965.797C494.143 959.353 574.115 656.464 574.115 656.464L652.133 949.313C652.133 949.313 654.087 965.797 660.571 965.797C667.055 965.797 669.217 989.427 669.217 989.427H705.96V965.797C705.96 965.797 722.47 960.595 715.986 943.41C709.502 926.224 680.023 566.242 680.023 566.242H470.367Z" fill="#313030"/>
<path d="M596.677 243.888C621.148 243.888 640.986 224.172 640.986 199.851C640.986 175.53 621.148 155.814 596.677 155.814C572.206 155.814 552.368 175.53 552.368 199.851C552.368 224.172 572.206 243.888 596.677 243.888Z" fill="#FFB6B6"/>
<path opacity="0.1" d="M672.458 397.612L681.104 404.057L685.426 373.982L672.458 397.612Z" fill="black"/>
<path d="M476.672 295.404C476.672 295.404 465.865 293.256 459.381 312.589C452.897 331.923 429.121 404.96 429.121 417.848C429.121 430.737 577.186 487.607 577.186 487.607L561.779 433.892L493.963 398.515L476.672 295.404Z" fill="white"/>
<path d="M584.054 479.643C597.996 479.643 609.298 468.41 609.298 454.554C609.298 440.697 597.996 429.464 584.054 429.464C570.112 429.464 558.81 440.697 558.81 454.554C558.81 468.41 570.112 479.643 584.054 479.643Z" fill="#FFB6B6"/>
<path opacity="0.1" d="M491.987 371.907L493.963 398.515L556.674 431.228L500.896 394.045L491.987 371.907Z" fill="black"/>
<path d="M642.743 375.7H641.93V353.55C641.93 351.867 641.596 350.2 640.948 348.645C640.3 347.089 639.35 345.676 638.152 344.485C636.954 343.295 635.532 342.351 633.967 341.707C632.402 341.062 630.725 340.731 629.031 340.731H581.814C580.12 340.731 578.443 341.062 576.878 341.706C575.313 342.351 573.891 343.295 572.693 344.485C571.495 345.676 570.545 347.089 569.897 348.644C569.249 350.2 568.915 351.867 568.915 353.55V475.066C568.915 476.749 569.249 478.416 569.897 479.972C570.545 481.527 571.495 482.94 572.693 484.131C573.891 485.321 575.313 486.265 576.878 486.91C578.443 487.554 580.12 487.886 581.814 487.886H629.031C630.725 487.886 632.402 487.554 633.967 486.91C635.532 486.266 636.954 485.321 638.152 484.131C639.35 482.94 640.3 481.527 640.948 479.972C641.596 478.416 641.93 476.749 641.93 475.066V391.467H642.743V375.7Z" fill="#424242"/>
<path d="M701.637 338.538C701.637 338.538 708.122 342.834 712.444 362.167C716.767 381.501 744.865 454.538 734.058 471.723C723.251 488.908 720.061 507.25 683.317 481.472L632.472 435.205L669.216 400.834L684.346 411.575L701.637 338.538Z" fill="white"/>
<path d="M605.999 394.89C611.968 394.89 616.806 390.081 616.806 384.15C616.806 378.218 611.968 373.409 605.999 373.409C600.031 373.409 595.192 378.218 595.192 384.15C595.192 390.081 600.031 394.89 605.999 394.89Z" fill="#FFF5F5"/>
<path d="M637.284 432.769C651.226 432.769 662.528 421.537 662.528 407.68C662.528 393.824 651.226 382.591 637.284 382.591C623.342 382.591 612.04 393.824 612.04 407.68C612.04 421.537 623.342 432.769 637.284 432.769Z" fill="#FFB6B6"/>
<path opacity="0.1" d="M490.796 452.212L563.264 484.071L488.782 469.603L490.796 452.212Z" fill="black"/>
<path d="M551.975 208.627L545.891 185.616C544.304 179.612 542.703 173.486 543.06 167.289C543.416 161.091 546.062 154.695 551.315 151.338C556.569 147.98 564.589 148.773 567.97 153.993C568.612 145.658 576.242 139.247 584.336 136.975C592.431 134.704 601.025 135.602 609.428 135.986C617.83 136.369 626.699 136.101 633.951 131.866C634.503 133.514 634.467 135.301 633.848 136.925C633.229 138.55 632.064 139.912 630.552 140.782C632.354 141.271 634.277 141.061 635.929 140.194C637.582 139.328 638.842 137.87 639.454 136.115C639.509 140.943 637.714 145.61 634.433 149.17C637.563 147.627 641.158 147.296 644.519 148.242C647.88 149.188 650.767 151.343 652.618 154.287C656.319 160.664 654.245 168.672 652.08 175.712L640.967 211.844C639.282 206.352 638.964 200.553 638.062 194.881C637.161 189.209 635.557 183.416 631.789 179.062C628.022 174.708 621.623 172.187 616.27 174.349C613.267 175.562 610.977 178.022 608.266 179.788C602.702 183.412 595.626 183.931 589.016 183.194C582.406 182.457 575.965 180.586 569.356 179.839C565.218 179.371 560.6 179.495 557.478 182.234C555.33 184.452 553.912 187.266 553.412 190.303C551.938 196.357 551.359 202.591 551.692 208.811" fill="#2F2E41"/>
</g>
<defs>
<clipPath id="clip0">
<rect width="1376" height="1160" fill="white"/>
</clipPath>
</defs>
</svg>
